<?xml version="1.0" encoding="UTF-8"?>
<svg width="32" height="32" viewBox="0 0 32 32" fill="none" xmlns="http://www.w3.org/2000/svg">
  <!-- Background circle -->
  <circle cx="16" cy="16" r="15" fill="#f8f8f8" stroke="#000" stroke-width="1"/>
  
  <!-- Shopping bag with stylized G -->
  <g transform="translate(16, 16)">
    <!-- Bag shape -->
    <path d="M-6,-8 L-3,-8 L-3,-6 L6,-6 L6,-8 L9,-8 L9,6 L6,6 L6,4 L-3,4 L-3,6 L-6,6 Z" 
          fill="#000" stroke="#fff" stroke-width="0.5"/>
    
    <!-- Handle -->
    <path d="M-6,-8 Q-6,-10 -3,-10 Q0,-10 0,-8" 
          fill="none" stroke="#000" stroke-width="1.5" stroke-linecap="round"/>
    
    <!-- Stylized "G" -->
    <path d="M-3,-3 Q-3,-5 -1,-5 Q1,-5 1,-3 L1,-1 Q1,1 -1,1 Q-3,1 -3,-1 Z M-1,-1 L2,-1 L2,1 Q2,2 0,2 Q-1,2 -1,1 Z" 
          fill="#fff"/>
    
    <!-- Small cart icon -->
    <circle cx="4" cy="4" r="1" fill="#fff"/>
    <path d="M3,4 L5,4 M4,3 L4,5" stroke="#000" stroke-width="0.5" stroke-linecap="round"/>
  </g>
</svg>