<?xml version="1.0" encoding="UTF-8"?>
<svg width="120" height="120" viewBox="0 0 120 120" fill="none" xmlns="http://www.w3.org/2000/svg">
  <!-- Background circle with gradient -->
  <defs>
    <linearGradient id="bgGradient" x1="0%" y1="0%" x2="100%" y2="100%">
      <stop offset="0%" style="stop-color:#f8f8f8;stop-opacity:1" />
      <stop offset="100%" style="stop-color:#e0e0e0;stop-opacity:1" />
    </linearGradient>
    <linearGradient id="iconGradient" x1="0%" y1="0%" x2="100%" y2="100%">
      <stop offset="0%" style="stop-color:#333333;stop-opacity:1" />
      <stop offset="100%" style="stop-color:#000000;stop-opacity:1" />
    </linearGradient>
  </defs>
  
  <!-- Main background circle -->
  <circle cx="60" cy="60" r="55" fill="url(#bgGradient)" stroke="#000" stroke-width="2"/>
  
  <!-- Central icon - Stylized "G" with shopping bag -->
  <g transform="translate(60, 60)">
    <!-- Shopping bag shape -->
    <path d="M-15,-20 L-8,-20 L-8,-15 L15,-15 L15,-20 L22,-20 L22,15 L15,15 L15,10 L-8,10 L-8,15 L-15,15 Z" 
          fill="url(#iconGradient)" stroke="#fff" stroke-width="1"/>
    
    <!-- Handle of the bag -->
    <path d="M-15,-20 Q-15,-25 -8,-25 Q-1,-25 -1,-20" 
          fill="none" stroke="url(#iconGradient)" stroke-width="3" stroke-linecap="round"/>
    
    <!-- Stylized "G" inside -->
    <path d="M-8,-8 Q-8,-12 -4,-12 Q0,-12 0,-8 L0,-4 Q0,0 -4,0 Q-8,0 -8,-4 L-8,-8 Z M-4,-4 L4,-4 L4,4 Q4,8 0,8 Q-4,8 -4,4 Z" 
          fill="#fff" stroke="url(#iconGradient)" stroke-width="1"/>
    
    <!-- Small shopping cart icon -->
    <circle cx="12" cy="12" r="3" fill="#fff"/>
    <path d="M9,12 L15,12 M12,9 L12,15" stroke="url(#iconGradient)" stroke-width="1.5" stroke-linecap="round"/>
  </g>
  
  <!-- Decorative elements -->
  <circle cx="20" cy="20" r="2" fill="#000" opacity="0.3"/>
  <circle cx="100" cy="25" r="1.5" fill="#000" opacity="0.2"/>
  <circle cx="25" cy="95" r="1" fill="#000" opacity="0.4"/>
  <circle cx="95" cy="90" r="2.5" fill="#000" opacity="0.2"/>
</svg>